<svg id="Icon" xmlns="http://www.w3.org/2000/svg" width="109.059" height="205.208" viewBox="0 0 109.059 205.208">
  <path id="Path_323" data-name="Path 323" d="M138.363,127.72a35.068,35.068,0,0,0,15.587-12.366,67.1,67.1,0,0,0,8.924-18.011,124.562,124.562,0,0,0,5.506-22.6c.542-3.7.911-7.512.012-11.141s-3.942-7.966-7.462-9.223c1.24-3.619-.824-7.762-4-9.886s-7.2-2.584-11.019-2.442-7.621.827-11.445.739c-9.89-.227-18.9-5.518-28.566-7.643-4.3-.947-8.874-1.246-13.065.118-7.085,2.305-12.078,9.3-13.067,16.684S81.387,66.9,85.8,72.9s10.518,10.572,16.971,14.3c-3.154,10.429-1.51,22.808,5.026,31.525S128.158,131.535,138.363,127.72Z" transform="translate(-75.609 -34.336)" fill="#644233"/>
  <g id="Group_76" data-name="Group 76" transform="translate(18.561 48.452)">
    <path id="Path_324" data-name="Path 324" d="M104.014,85.137A4.446,4.446,0,0,0,98.6,83.022a6.739,6.739,0,0,0-4.037,4.629,14.536,14.536,0,0,0-.087,6.335,19.338,19.338,0,0,0,3.6,9.03,10.22,10.22,0,0,0,8.515,4.074,27.879,27.879,0,0,0,2.4-12.128C108.733,90.946,107.351,87.387,104.014,85.137Z" transform="translate(-94.17 -82.788)" fill="#e9a482"/>
    <path id="Path_325" data-name="Path 325" d="M156.265,85.137a4.446,4.446,0,0,1,5.415-2.115,6.736,6.736,0,0,1,4.035,4.629,14.536,14.536,0,0,1,.089,6.335,19.35,19.35,0,0,1-3.6,9.03,10.222,10.222,0,0,1-8.516,4.074,27.894,27.894,0,0,1-2.4-12.128C151.545,90.946,152.929,87.387,156.265,85.137Z" transform="translate(-94.17 -82.788)" fill="#e9a482"/>
  </g>
  <g id="Group_77" data-name="Group 77" transform="translate(18.561 48.452)" opacity="0.1">
    <path id="Path_326" data-name="Path 326" d="M104.014,85.137A4.446,4.446,0,0,0,98.6,83.022a6.739,6.739,0,0,0-4.037,4.629,14.536,14.536,0,0,0-.087,6.335,19.338,19.338,0,0,0,3.6,9.03,10.22,10.22,0,0,0,8.515,4.074,27.879,27.879,0,0,0,2.4-12.128C108.733,90.946,107.351,87.387,104.014,85.137Z" transform="translate(-94.17 -82.788)"/>
    <path id="Path_327" data-name="Path 327" d="M156.265,85.137a4.446,4.446,0,0,1,5.415-2.115,6.736,6.736,0,0,1,4.035,4.629,14.536,14.536,0,0,1,.089,6.335,19.35,19.35,0,0,1-3.6,9.03,10.222,10.222,0,0,1-8.516,4.074,27.894,27.894,0,0,1-2.4-12.128C151.545,90.946,152.929,87.387,156.265,85.137Z" transform="translate(-94.17 -82.788)"/>
  </g>
  <path id="Rectangle_43" data-name="Rectangle 43" d="M51.236,0h6.588a51.235,51.235,0,0,1,51.235,51.235V90.673a18.386,18.386,0,0,1-18.386,18.386H18.387A18.387,18.387,0,0,1,0,90.672V51.236A51.236,51.236,0,0,1,51.236,0Z" transform="translate(0 96.149)" fill="#855cff"/>
  <path id="Path_328" data-name="Path 328" d="M179.63,159.538a51.239,51.239,0,0,0-46.2-29.053h-6.588a50.986,50.986,0,0,0-26.522,7.391,47.5,47.5,0,0,0,.8,9.448c1.495,7.253,6.968,14.6,14.373,14.645,6.98.043,12.382-6.188,19.124-7.994,9.216-2.469,18.29,3.646,27.553,5.933A34.561,34.561,0,0,0,179.63,159.538Z" transform="translate(-75.609 -34.336)" opacity="0.1"/>
  <path id="Path_329" data-name="Path 329" d="M142.609,138.911h0a23.273,23.273,0,0,1-24.939,0h0V94.088h24.939Z" transform="translate(-75.609 -34.336)" fill="#e9a482"/>
  <path id="Path_330" data-name="Path 330" d="M117.67,133.789a21.175,21.175,0,0,0,4.244.435c8.1,0,15.432-4.637,20.695-12.1V94.088H117.67Z" transform="translate(-75.609 -34.336)" opacity="0.2"/>
  <path id="Path_331" data-name="Path 331" d="M159.15,87.725c0,22.323-12.988,40.42-29.01,40.42s-29.012-18.1-29.012-40.42,12.989-32.261,29.012-32.261S159.15,65.4,159.15,87.725Z" transform="translate(-75.609 -34.336)" fill="#e9a482"/>
  <g id="Group_78" data-name="Group 78" transform="translate(15.983 133.227)" opacity="0.2">
    <path id="Path_332" data-name="Path 332" d="M95,239.543a181.95,181.95,0,0,1,5.69-70.582,1.1,1.1,0,0,0-2.113-.6,184.17,184.17,0,0,0-5.8,71.123c.4.027.807.061,1.219.061Z" transform="translate(-91.592 -167.563)"/>
    <path id="Path_333" data-name="Path 333" d="M166.283,239.543c.411,0,.814-.034,1.219-.061a184.147,184.147,0,0,0-5.8-71.123,1.1,1.1,0,0,0-2.112.6,181.946,181.946,0,0,1,5.688,70.582Z" transform="translate(-91.592 -167.563)"/>
  </g>
  <g id="Group_81" data-name="Group 81" transform="translate(29.4 45.09)">
    <g id="Group_79" data-name="Group 79">
      <path id="Path_334" data-name="Path 334" d="M124.477,81.613a18.43,18.43,0,0,0-19.468,1.282c.116.268.18.546.3.813a21.408,21.408,0,0,1,16-.5,5.248,5.248,0,0,0,2.589.542C124.772,83.607,124.812,82.44,124.477,81.613Z" transform="translate(-105.009 -79.426)" fill="#644233"/>
      <path id="Path_335" data-name="Path 335" d="M119.977,90.94c0,2.216-.767,4.013-1.712,4.013s-1.712-1.8-1.712-4.013.766-4.013,1.712-4.013S119.977,88.723,119.977,90.94Z" transform="translate(-105.009 -79.426)" fill="#644233"/>
    </g>
    <g id="Group_80" data-name="Group 80" transform="translate(30.598)">
      <path id="Path_336" data-name="Path 336" d="M135.8,81.613a18.43,18.43,0,0,1,19.468,1.282c-.116.268-.181.546-.3.813a21.408,21.408,0,0,0-16-.5,5.248,5.248,0,0,1-2.589.542C135.507,83.607,135.466,82.44,135.8,81.613Z" transform="translate(-135.607 -79.426)" fill="#644233"/>
      <path id="Path_337" data-name="Path 337" d="M140.3,90.94c0,2.216.766,4.013,1.713,4.013s1.712-1.8,1.712-4.013-.767-4.013-1.712-4.013S140.3,88.723,140.3,90.94Z" transform="translate(-135.607 -79.426)" fill="#644233"/>
    </g>
  </g>
  <path id="Path_338" data-name="Path 338" d="M122.646,102.135c0,1.636-3.948,2.963-8.818,2.963s-8.819-1.327-8.819-2.963,3.948-2.963,8.819-2.963S122.646,100.5,122.646,102.135Z" transform="translate(-75.609 -34.336)" fill="#e9a482" opacity="0.3" style="mix-blend-mode: multiply;isolation: isolate"/>
  <path id="Path_339" data-name="Path 339" d="M152.926,102.135c0,1.636-3.877,2.963-8.659,2.963s-8.66-1.327-8.66-2.963,3.877-2.963,8.66-2.963S152.926,100.5,152.926,102.135Z" transform="translate(-75.609 -34.336)" fill="#e9a482" opacity="0.3" style="mix-blend-mode: multiply;isolation: isolate"/>
  <g id="Group_82" data-name="Group 82" transform="translate(50.012 53.076)" opacity="0.3" style="mix-blend-mode: multiply;isolation: isolate">
    <path id="Path_340" data-name="Path 340" d="M130.029,105.829a.489.489,0,0,1-.113-.012c-1.824-.381-3.9-1.521-4.246-3.575a6.206,6.206,0,0,1,.567-3.161l.122-.33a19.8,19.8,0,0,0,.794-10.68.549.549,0,1,1,1.077-.218,20.91,20.91,0,0,1-.838,11.271l-.124.339a5.227,5.227,0,0,0-.515,2.6c.256,1.513,1.985,2.392,3.388,2.685a.549.549,0,0,1-.112,1.086Z" transform="translate(-125.622 -87.412)" fill="#e9a482"/>
  </g>
  <path id="Path_341" data-name="Path 341" d="M97.421,80.557a119.962,119.962,0,0,0,4.528,17.691,125.687,125.687,0,0,1,2.885-18.368,80.2,80.2,0,0,0,42.644-8.525c1.871,3.875,5.776,7.46,9.272,9.969a47.324,47.324,0,0,0,1.1,19.111,92.359,92.359,0,0,0,5.765-23.622A24.044,24.044,0,0,0,158.3,59.232a28.6,28.6,0,0,0-15.634-9.281,45.115,45.115,0,0,0-18.379-.064c-7.487,1.379-14.941,4.257-20.309,9.656A24.35,24.35,0,0,0,97.421,80.557Z" transform="translate(-75.609 -34.336)" fill="#644233"/>
  <g id="Group_85" data-name="Group 85" transform="translate(25.208 59.752)">
    <g id="Group_83" data-name="Group 83" transform="translate(46.941 1.148)">
      <path id="Path_342" data-name="Path 342" d="M156.8,95.236a58.52,58.52,0,0,1-9.041,12.341l.791.761a59.583,59.583,0,0,0,8.541-11.395C156.985,96.377,156.886,95.81,156.8,95.236Z" transform="translate(-147.758 -95.236)" fill="#fff"/>
      <path id="Path_343" data-name="Path 343" d="M157.407,106.539a32.207,32.207,0,0,1-8.5,8.234l.6.918a33.422,33.422,0,0,0,9.89-10.151A10.444,10.444,0,0,1,157.407,106.539Z" transform="translate(-147.758 -95.236)" fill="#fff"/>
    </g>
    <path id="Path_344" data-name="Path 344" d="M151.931,105.047a4.172,4.172,0,0,0-2.553-.483,30.27,30.27,0,0,1-7.6-.543,12,12,0,0,1-6.518-3.717c-.661-.786-1.189-1.683-1.9-2.423a3.57,3.57,0,0,0-2.707-1.254c-.082.006-.159.024-.239.036-.08-.012-.157-.03-.239-.036a3.567,3.567,0,0,0-2.706,1.254c-.713.74-1.241,1.637-1.9,2.423a11.994,11.994,0,0,1-6.518,3.717,30.267,30.267,0,0,1-7.6.543,4.167,4.167,0,0,0-2.552.483c-1.008.718-1.147,2.147-1.088,3.383a21.644,21.644,0,0,0,22.6,20.6,21.644,21.644,0,0,0,22.6-20.6C153.078,107.194,152.938,105.765,151.931,105.047Z" transform="translate(-100.817 -94.088)" fill="#fff"/>
    <g id="Group_84" data-name="Group 84">
      <path id="Path_345" data-name="Path 345" d="M102.269,94.088a58.537,58.537,0,0,0,9.041,12.341l-.791.761a59.553,59.553,0,0,1-8.542-11.4C102.083,95.229,102.182,94.662,102.269,94.088Z" transform="translate(-100.817 -94.088)" fill="#fff"/>
      <path id="Path_346" data-name="Path 346" d="M102.81,106.539a32.226,32.226,0,0,0,8.5,8.234l-.6.918a33.437,33.437,0,0,1-9.891-10.151A10.465,10.465,0,0,0,102.81,106.539Z" transform="translate(-100.817 -94.088)" fill="#fff"/>
    </g>
  </g>
</svg>
