<svg xmlns="http://www.w3.org/2000/svg" xmlns:xlink="http://www.w3.org/1999/xlink" width="158.979" height="208.501" viewBox="0 0 158.979 208.501">
  <defs>
    <clipPath id="clip-path">
      <path id="Path_3873" data-name="Path 3873" d="M134.62,237.862s-8.652-2.163-11.9-9.193a143.375,143.375,0,0,1,11.547-14.048A12.224,12.224,0,0,1,140.3,211c4.393-1.12,11.362-2.883,12.1-2.883,1.622,3.244,9.7,4.324,12.408,1.08,3.128-.313,7.438.823,10.435,1.835a12.251,12.251,0,0,1,5.84,4.2l9.777,12.889s-3.245,7.03-13.519,8.652c-.54,10.815-.54,26.5-.54,26.5l-42.719-.541Z" transform="translate(-122.724 -208.121)" fill="none"/>
    </clipPath>
  </defs>
  <g id="Icon" transform="translate(-41.883 -113.219)">
    <g id="Group_340" data-name="Group 340" transform="translate(41.883 113.219)">
      <path id="Rectangle_110" data-name="Rectangle 110" d="M46.5,0h43.26a46.5,46.5,0,0,1,46.5,46.5v0a0,0,0,0,1,0,0H0a0,0,0,0,1,0,0v0A46.5,46.5,0,0,1,46.5,0Z" transform="translate(11.356 93.479)" fill="#dbba8f"/>
      <path id="Rectangle_111" data-name="Rectangle 111" d="M11.626,0h0A11.626,11.626,0,0,1,23.252,11.626V66.512a0,0,0,0,1,0,0H0a0,0,0,0,1,0,0V11.626A11.626,11.626,0,0,1,11.626,0Z" transform="translate(133.132 115.109)" fill="#e7cea7" opacity="0.5" style="mix-blend-mode: multiply;isolation: isolate"/>
      <path id="Rectangle_112" data-name="Rectangle 112" d="M11.626,0h0A11.626,11.626,0,0,1,23.252,11.626V66.512a0,0,0,0,1,0,0H0a0,0,0,0,1,0,0V11.626A11.626,11.626,0,0,1,11.626,0Z" transform="translate(135.727 115.109)" fill="#e7cea7"/>
      <path id="Rectangle_113" data-name="Rectangle 113" d="M11.626,0h0A11.626,11.626,0,0,1,23.252,11.626V66.512a0,0,0,0,1,0,0H0a0,0,0,0,1,0,0V11.626A11.626,11.626,0,0,1,11.626,0Z" transform="translate(2.595 115.109)" fill="#e7cea7" opacity="0.5" style="mix-blend-mode: multiply;isolation: isolate"/>
      <path id="Rectangle_114" data-name="Rectangle 114" d="M11.626,0h0A11.626,11.626,0,0,1,23.252,11.626V66.512a0,0,0,0,1,0,0H0a0,0,0,0,1,0,0V11.626A11.626,11.626,0,0,1,11.626,0Z" transform="translate(0 115.109)" fill="#e7cea7"/>
      <rect id="Rectangle_115" data-name="Rectangle 115" width="112.475" height="15.141" transform="translate(23.252 166.48)" fill="#dbba8f"/>
      <path id="Rectangle_116" data-name="Rectangle 116" d="M0,0H113.016a0,0,0,0,1,0,0V18.581A7.915,7.915,0,0,1,105.1,26.5H7.915A7.915,7.915,0,0,1,0,18.581V0A0,0,0,0,1,0,0Z" transform="translate(23.252 143.876)" fill="#e7cea7" opacity="0.5" style="mix-blend-mode: multiply;isolation: isolate"/>
      <rect id="Rectangle_117" data-name="Rectangle 117" width="113.016" height="26.497" transform="translate(23.252 139.983)" fill="#e7cea7"/>
      <path id="Path_3847" data-name="Path 3847" d="M274.867,417.47h-3.379l-5-24.333h6.759Z" transform="translate(-120.755 -211.515)" fill="#f7931e"/>
      <path id="Path_3848" data-name="Path 3848" d="M57.3,417.47h3.38l5-24.333H58.924Z" transform="translate(-47.298 -211.515)" fill="#f7931e"/>
      <path id="Path_3849" data-name="Path 3849" d="M171.407,113.226a10.454,10.454,0,0,0-10.261,10.636c0,.134.025.263.035.4a6.466,6.466,0,0,0-6.678-1.038c-3.315,1.515-4.569,5.878-2.8,9.746s5.888,5.774,9.2,4.259a6.561,6.561,0,0,0,3.6-6.232,10.793,10.793,0,0,0,7.635,2.753,10.272,10.272,0,1,0-.728-20.519Z" transform="translate(-80.165 -113.219)" fill="#1a1a1a"/>
      <path id="Path_3850" data-name="Path 3850" d="M182.382,128.8a14.615,14.615,0,0,0-9.516-2.135,28.591,28.591,0,0,0-11.333,4.205,26.411,26.411,0,0,1-4.17,2.188,6.928,6.928,0,0,1-4.617.232,4.466,4.466,0,0,1-1.634-1.025,8.415,8.415,0,0,0,.591,5.392c1.768,3.868,5.888,5.774,9.2,4.259a6.561,6.561,0,0,0,3.6-6.232,10.793,10.793,0,0,0,7.635,2.753A10.5,10.5,0,0,0,182.382,128.8Z" transform="translate(-80.169 -117.911)"/>
      <path id="Path_3851" data-name="Path 3851" d="M192.282,153.948c.4,11.192-8.051,20.577-18.87,20.961s-19.912-8.378-20.309-19.57,8.051-20.577,18.87-20.961S191.885,142.756,192.282,153.948Z" transform="translate(-80.935 -120.645)" fill="#1a1a1a"/>
      <path id="Path_3852" data-name="Path 3852" d="M168.988,187.8s-.64,12.468-.544,15.17c1.138,1.583,5.576,4.672,5.576,4.672l6.891-4.032-.307-8.646Z" transform="translate(-86.323 -139.408)" fill="#f1b596"/>
      <path id="Path_3853" data-name="Path 3853" d="M169.013,191.473c2.549,3.684,6.427,7.449,11.973,8.506l-.178-5.019L169.191,187.8S169.112,189.349,169.013,191.473Z" transform="translate(-86.526 -139.408)" fill="#f1b596" style="mix-blend-mode: multiply;isolation: isolate"/>
      <path id="Path_3854" data-name="Path 3854" d="M159.44,165.03c.87,2.562,5.995,15.949,18.235,16.487a1.794,1.794,0,0,0,.689-.107c8.407-3.066,15.549-9.756,15.246-18.289-.307-8.647-6.076-18.722-12.6-19.573s-16.638,3.837-19.573,12.6a81.855,81.855,0,0,0-2.063,8.013A1.736,1.736,0,0,0,159.44,165.03Z" transform="translate(-83.132 -123.835)" fill="#f1b596"/>
      <path id="Path_3855" data-name="Path 3855" d="M115.8,313.963l37.767,7.243a3.122,3.122,0,0,1,2.328,1.951l5.455,14.265a4.047,4.047,0,0,1-1.42,4.724c-2.235,1.618-5.576,2.752-7.9-2.227a82.354,82.354,0,0,1-3.63-8.862,3.114,3.114,0,0,0-3.371-2.118c-6.658.883-23.936,2.868-30.851.707C105.529,326.941,115.8,313.963,115.8,313.963Z" transform="translate(-66.055 -183.713)" fill="#f1b596"/>
      <path id="Path_3856" data-name="Path 3856" d="M196.832,364.8l-9.095,24.758a4.284,4.284,0,0,0,.189,3.394l7.079,14.159a5.269,5.269,0,0,0,4.4,2.9c3.573.213,8.626-.113,6.076-4.119-2.414-3.794-5.047-7.587-6.639-9.838a4.28,4.28,0,0,1-.346-4.356l12.393-25.281L197.373,364.8" transform="translate(-93.009 -201.565)" fill="#f1b596"/>
      <path id="Path_3857" data-name="Path 3857" d="M211.25,374.67a.722.722,0,0,0-.337-.212,32.68,32.68,0,0,0-7.417-1.9,27.257,27.257,0,0,1-4.622-.792l-.86,2.34a15.115,15.115,0,0,0,10.176,7.218c.09.018.183.032.276.042l2.5-5.108c.1-.321.2-.638.291-.96A.73.73,0,0,0,211.25,374.67Z" transform="translate(-96.71 -204.011)" fill="#f1b596" opacity="0.35" style="mix-blend-mode: multiply;isolation: isolate"/>
      <path id="Path_3858" data-name="Path 3858" d="M119.123,329.9s-2.7-13.519,2.163-20.008c9.733,1.622,22.711,4.326,22.711,4.326s8.448,2.253,13.761,3.71a3.867,3.867,0,0,1,2.626,5.019c-2.824,7.994-6.653,21.011-6.653,21.011s11.9,10.274,24.333,3.244c4.326-12.437,13.519-35.689,9.193-41.1-3.244-4.326-27.578-11.355-27.578-11.355l-40.556-1.622s-37.311.54-38.934,18.926C79.108,321.247,93.708,329.9,119.123,329.9Z" transform="translate(-55.315 -176.396)" fill="#491b0b"/>
      <path id="Path_3859" data-name="Path 3859" d="M119.16,317.4c-1.39.1-2.8.291-4.132.409-6.5.582-13.362-1.562-17.835-6.316a17.831,17.831,0,0,1-4.678-10.413c-6.475,2.8-11.737,7.115-12.325,13.769-1.082,9.193,13.519,17.844,38.934,17.844C119.123,332.689,117.421,324.156,119.16,317.4Z" transform="translate(-55.315 -179.187)" fill="#491b0b" opacity="0.35" style="mix-blend-mode: multiply;isolation: isolate"/>
      <path id="Path_3860" data-name="Path 3860" d="M135.348,247.711s-9.193,10.815-.541,18.927a96.463,96.463,0,0,1-.54,10.815s-22.711-8.111-7.03-35.149C129.941,236.9,135.348,247.711,135.348,247.711Z" transform="translate(-69.918 -158.017)" fill="#e9937f"/>
      <path id="Path_3861" data-name="Path 3861" d="M205.651,247.711s9.193,10.815.541,18.927a96.46,96.46,0,0,0,.54,10.815s22.711-8.111,7.03-35.149C211.059,236.9,205.651,247.711,205.651,247.711Z" transform="translate(-99.392 -158.017)" fill="#f1b596"/>
      <path id="Path_3862" data-name="Path 3862" d="M186.065,321.193a7.327,7.327,0,0,0-2.836-.755c-12.25-1.542-24.5-4.382-36.75-5.923a3.812,3.812,0,0,0-2.941.43c-.585.484-.8,2.01-.736,3.142.154-.247.315-.488.487-.718,9.733,1.622,22.711,4.326,22.711,4.326s8.448,2.253,13.761,3.71a3.867,3.867,0,0,1,2.626,5.019c-2.824,7.994-6.653,21.011-6.653,21.011a27.217,27.217,0,0,0,8.625,4.643,4.473,4.473,0,0,0,.67-.531c1.449-1.431,1.673-3.656,1.813-5.688q.731-10.679,1.461-21.357a14.6,14.6,0,0,0-.1-4.023A4.929,4.929,0,0,0,186.065,321.193Z" transform="translate(-77.318 -183.874)" fill="#491b0b" opacity="0.35" style="mix-blend-mode: multiply;isolation: isolate"/>
      <path id="Path_3863" data-name="Path 3863" d="M137.812,331.6a34.715,34.715,0,0,1,2.222-13.086l-5.318-1.02a10.376,10.376,0,0,0-.937,1.294c-2.352,3.8-2.956,8.414-3.267,12.876,0,.062-.006.125-.01.188C132.853,331.86,135.348,331.762,137.812,331.6Z" transform="translate(-73.003 -184.954)" fill="#f1b596" opacity="0.35" style="mix-blend-mode: multiply;isolation: isolate"/>
      <path id="Path_3864" data-name="Path 3864" d="M134.62,237.862s-8.652-2.163-11.9-9.193a143.375,143.375,0,0,1,11.547-14.048A12.224,12.224,0,0,1,140.3,211c4.393-1.12,11.362-2.883,12.1-2.883,1.622,3.244,9.7,4.324,12.408,1.08,3.128-.313,7.438.823,10.435,1.835a12.251,12.251,0,0,1,5.84,4.2l9.777,12.889s-3.245,7.03-13.519,8.652c-.54,10.815-.54,26.5-.54,26.5l-42.719-.541Z" transform="translate(-70.271 -146.545)" fill="#fbb03b"/>
      <path id="Path_3865" data-name="Path 3865" d="M176.8,263.587s0-5.435.11-12.111a56.908,56.908,0,0,0-8.046-7.589c-4.441-3.6-9.1-7.062-12.513-11.647-4.9-6.593-6.765-14.956-6.76-23.236-2.614.613-6.479,1.592-9.293,2.31a12.224,12.224,0,0,0-6.026,3.617,143.375,143.375,0,0,0-11.547,14.048c3.244,7.03,11.9,9.193,11.9,9.193l-.541,24.874Z" transform="translate(-70.271 -146.855)" fill="#fbb03b" opacity="0.2" style="mix-blend-mode: multiply;isolation: isolate"/>
      <path id="Path_3866" data-name="Path 3866" d="M160.84,160.158c.54-.019,9.574-4.668,11.911-15.032.713,4.845,5.749,9.535,12.852,11.447s8.336,6.2,8.375,7.278c.31-6.5.023-14.61-2.756-16.676s-6.773-7.876-18.6-5.832c-6.987,1.33-13.107,11.828-12.318,18.834" transform="translate(-83.442 -122.945)" fill="#1a1a1a"/>
      <path id="Path_3867" data-name="Path 3867" d="M210.511,168.467c1.072,3.04,2.391,8.457,1.588,11.579a35.857,35.857,0,0,1-1.577,3.967,6.3,6.3,0,0,0-.4,4.169" transform="translate(-100.89 -132.62)" fill="none" stroke="#1a1a1a" stroke-miterlimit="10" stroke-width="3"/>
      <path id="Path_3868" data-name="Path 3868" d="M160.648,171.888c.692,2.442-.145,4.818-1.869,5.307s-3.683-1.1-4.374-3.538.145-4.818,1.869-5.306S159.956,169.445,160.648,171.888Z" transform="translate(-81.311 -132.548)" fill="#f1b596"/>
      <g id="Group_339" data-name="Group 339" transform="translate(52.453 61.576)">
        <g id="Group_338" data-name="Group 338" clip-path="url(#clip-path)">
          <g id="Group_337" data-name="Group 337" transform="translate(0.11 5.116)">
            <path id="Path_3869" data-name="Path 3869" d="M128.242,226.9l59.643-.555" transform="translate(-124.772 -219.635)" fill="none" stroke="#fff" stroke-miterlimit="10" stroke-width="0.5"/>
            <path id="Path_3870" data-name="Path 3870" d="M128.242,216.56l59.643-.554" transform="translate(-124.772 -216.006)" fill="none" stroke="#fff" stroke-miterlimit="10" stroke-width="0.5"/>
            <path id="Path_3871" data-name="Path 3871" d="M122.894,237.663q34.518.715,69.046-.131" transform="translate(-122.894 -223.565)" fill="none" stroke="#fff" stroke-miterlimit="10" stroke-width="0.5"/>
            <path id="Path_3872" data-name="Path 3872" d="M122.894,248.007q34.518.715,69.046-.131" transform="translate(-122.894 -227.198)" fill="none" stroke="#fff" stroke-miterlimit="10" stroke-width="0.5"/>
          </g>
        </g>
      </g>
      <path id="Path_3874" data-name="Path 3874" d="M200.889,233.014a15.263,15.263,0,0,1,3.794,12.608c-.365,2.25-1.244,4.519-.74,6.741" transform="translate(-97.72 -155.287)" fill="none" stroke="#fbb03b" stroke-linecap="round" stroke-miterlimit="10" stroke-width="0.75" style="mix-blend-mode: multiply;isolation: isolate"/>
      <line id="Line_2" data-name="Line 2" y2="6.847" transform="translate(65.43 87.37)" fill="none" stroke="#fbb03b" stroke-linecap="round" stroke-miterlimit="10" stroke-width="0.75" style="mix-blend-mode: multiply;isolation: isolate"/>
      <path id="Path_3875" data-name="Path 3875" d="M176.761,171.893c.037,1.045-.417,1.909-1.014,1.93s-1.111-.808-1.148-1.853.417-1.909,1.013-1.93S176.723,170.849,176.761,171.893Z" transform="translate(-88.487 -133.173)" fill="#1a1a1a"/>
      <path id="Path_3876" data-name="Path 3876" d="M198.847,171.526c.037,1.045-.417,1.909-1.014,1.93s-1.111-.808-1.148-1.853.417-1.909,1.013-1.93S198.809,170.482,198.847,171.526Z" transform="translate(-96.243 -133.044)" fill="#1a1a1a"/>
      <path id="Path_3877" data-name="Path 3877" d="M167.95,170.334a5.948,5.948,0,1,1,6.155,5.733A5.948,5.948,0,0,1,167.95,170.334Z" transform="translate(-86.152 -131.113)" fill="none" stroke="#fff" stroke-miterlimit="10" stroke-width="2"/>
      <path id="Path_3878" data-name="Path 3878" d="M191.27,169.506a5.948,5.948,0,1,1,6.156,5.733A5.949,5.949,0,0,1,191.27,169.506Z" transform="translate(-94.341 -130.822)" fill="none" stroke="#fff" stroke-miterlimit="10" stroke-width="2"/>
      <path id="Path_3879" data-name="Path 3879" d="M195.483,161.551s3.147-2.817,6.485-.23" transform="translate(-95.822 -129.727)" fill="none" stroke="#1a1a1a" stroke-linecap="round" stroke-miterlimit="10" stroke-width="1"/>
      <path id="Path_3880" data-name="Path 3880" d="M170.5,162.437s3.147-2.817,6.485-.23" transform="translate(-87.048 -130.038)" fill="none" stroke="#1a1a1a" stroke-linecap="round" stroke-miterlimit="10" stroke-width="1"/>
      <path id="Path_3881" data-name="Path 3881" d="M183.03,186.141a4.954,4.954,0,0,0,7.366,1.829" transform="translate(-91.449 -138.827)" fill="none" stroke="#1a1a1a" stroke-linecap="round" stroke-miterlimit="10" stroke-width="1"/>
      <path id="Path_3882" data-name="Path 3882" d="M180.889,185.384a1.908,1.908,0,0,0,2.142-.617" transform="translate(-90.697 -138.344)" fill="none" stroke="#1a1a1a" stroke-linecap="round" stroke-miterlimit="10" stroke-width="1"/>
      <line id="Line_3" data-name="Line 3" x2="3.268" transform="translate(93.691 37.69)" fill="none" stroke="#fff" stroke-miterlimit="10" stroke-width="2"/>
      <path id="Path_3883" data-name="Path 3883" d="M181.2,305.495H137.936a2.434,2.434,0,0,1-2.434-2.433h0a2.434,2.434,0,0,1,2.434-2.434H181.2a2.434,2.434,0,0,1,2.434,2.434h0A2.433,2.433,0,0,1,181.2,305.495Z" transform="translate(-74.759 -179.03)" fill="#bdccd4"/>
      <path id="Path_3884" data-name="Path 3884" d="M179.525,283.8h-43.8l-4.944-28.431a2.272,2.272,0,0,1,2.238-2.662h49.708a2.272,2.272,0,0,1,2.231,2.7Z" transform="translate(-73.089 -162.202)" fill="#f2f2f2"/>
      <path id="Path_3885" data-name="Path 3885" d="M167.589,275.537a3.244,3.244,0,1,1,3.244,3.244A3.244,3.244,0,0,1,167.589,275.537Z" transform="translate(-86.026 -169.08)" fill="#bdccd4"/>
      <path id="Path_3886" data-name="Path 3886" d="M179.347,283.8a85.421,85.421,0,0,1-43.035-31.093h-3.294a2.272,2.272,0,0,0-2.238,2.662l4.944,28.431Z" transform="translate(-73.089 -162.202)" fill="#bdccd4" opacity="0.2" style="mix-blend-mode: multiply;isolation: isolate"/>
      <path id="Path_3887" data-name="Path 3887" d="M183.338,304.192a3.181,3.181,0,0,0-1.085-.66,8.671,8.671,0,0,0-3.579-.16,44.194,44.194,0,0,1-19.163-2.744H137.936a2.433,2.433,0,1,0,0,4.867H181.2A2.423,2.423,0,0,0,183.338,304.192Z" transform="translate(-74.759 -179.03)" fill="#bdccd4" opacity="0.25" style="mix-blend-mode: multiply;isolation: isolate"/>
      <path id="Path_3888" data-name="Path 3888" d="M195.915,133.9a6.083,6.083,0,0,0,3.357-3.479,15.829,15.829,0,0,0,.965-4.86" transform="translate(-95.973 -117.553)" fill="none" stroke="#1a1a1a" stroke-miterlimit="10" stroke-width="0.5"/>
      <path id="Path_3889" data-name="Path 3889" d="M166.929,124.578a8.673,8.673,0,0,1,1.461-10.03" transform="translate(-85.452 -113.686)" fill="none" stroke="#1a1a1a" stroke-miterlimit="10" stroke-width="0.5"/>
      <path id="Path_3890" data-name="Path 3890" d="M164.2,166.52a5.376,5.376,0,0,0-2.312,4.35,14.6,14.6,0,0,0,.877,5.022,19.256,19.256,0,0,1,1.092,4.992c.075,2.468-.873,4.84-1.8,7.127" transform="translate(-84.019 -131.936)" fill="none" stroke="#1a1a1a" stroke-miterlimit="10" stroke-width="3"/>
      <path id="Path_3891" data-name="Path 3891" d="M189.342,118.229a7.933,7.933,0,0,1,2.388,9.218" transform="translate(-93.665 -114.978)" fill="none" stroke="#fff" stroke-miterlimit="10" stroke-width="1"/>
      <path id="Path_3892" data-name="Path 3892" d="M185.485,146.251a14.026,14.026,0,0,0,6.63,7.857" transform="translate(-92.311 -124.819)" fill="none" stroke="#fff" stroke-miterlimit="10" stroke-width="1"/>
      <path id="Path_3893" data-name="Path 3893" d="M190.458,128.392a5.6,5.6,0,0,0-.269-4.043" transform="translate(-93.963 -117.128)" fill="none" stroke="#fff" stroke-miterlimit="10" stroke-width="1"/>
    </g>
  </g>
</svg>
