<svg xmlns="http://www.w3.org/2000/svg" xmlns:xlink="http://www.w3.org/1999/xlink" width="122" height="222" viewBox="0 0 122 222">
  <defs>
    <clipPath id="clip-path">
      <rect id="Rectangle_102" data-name="Rectangle 102" width="122" height="222" fill="#fff" opacity="0.66"/>
    </clipPath>
  </defs>
  <g id="Logo_icon" data-name="Logo icon" clip-path="url(#clip-path)">
    <path id="Path_3604" data-name="Path 3604" d="M699.924,278.55c-5.627.88-11.351,1.373-16.863,2.722a68.146,68.146,0,0,0-30.847,17.017c-1.123,1.058-2.131,2.24-3.388,3.574,2.583,2.337,4.973,4.5,7.544,6.824l-1.95,2.689L646.7,304.8c-15.056,18.178-19.41,45.294-10.828,64.084l8.928-6.07c1.635,1.175,1.681,2.132-.03,3.266-2.7,1.787-5.318,3.7-8.23,5.747,4.4,10.6,10.557,19.773,19.416,27.012,12.786,10.447,27.61,15.459,43.964,16.333v6.73a71.984,71.984,0,0,1-42.02-11.951c-2.516,2.951-4.965,5.8-7.394,8.677-2.1,2.483-4.1,5.047-6.285,7.454a3.536,3.536,0,0,0-.92,4.121,6.485,6.485,0,0,1-2.675,7.912,6.816,6.816,0,0,1-8.424-.471,6.7,6.7,0,0,1-1.786-7.955c1.156-2.977,4.215-4.463,7.652-4.2a4.137,4.137,0,0,0,3.048-1.035c4.641-5.314,9.13-10.761,13.9-16.439-10.688-8.549-19.539-18.482-24.932-31.346-2.224.9-3.442,1.73-3.336,4.383.134,3.345-2.812,5.485-6.118,5.151a5.425,5.425,0,0,1-4.817-6.155c.4-3.271,3.056-5.2,6.526-4.664.871.134,1.693.662,2.558.727,1.824.138,3.8-2.2,3.467-3.89-1.26-6.342-2.971-12.642-3.6-19.046-.619-6.31-.134-12.727-.134-19.715-2.8-.594-6.134-1.3-9.47-2.011-7.766-1.659-15.525-3.37-23.313-4.917a4.074,4.074,0,0,0-3.2.768c-6.682,6.685-14.725,4.836-17.477-4.113a5.182,5.182,0,0,0-.471-.887v-1.347c1.752-2.485,3.012-5.695,5.365-7.31,5.173-3.553,11.85-.563,13.978,5.581a5.73,5.73,0,0,0,1.736,2.408,5.375,5.375,0,0,0,2.24.616c10.6,2.2,21.207,4.4,32.112,6.656a74.813,74.813,0,0,1,14.67-29.4c-2.889-2.539-5.663-5.1-8.61-7.451-.553-.441-1.837-.166-2.722.044a7.213,7.213,0,0,1-7.969-2.826,7.012,7.012,0,0,1,9.083-10.148,7.29,7.29,0,0,1,3.8,7.576c-.11.961-.052,2.343.531,2.915,2.547,2.494,5.318,4.761,8.169,7.253a76.631,76.631,0,0,1,29.058-20.34c-2.429-5.377-4.718-10.437-7-15.5-2.256-4.995-4.612-9.95-6.723-15.006-.893-2.136-1.857-3.309-4.462-3.581a8.459,8.459,0,0,1-7.61-8.458,8.846,8.846,0,0,1,6.871-8.813,9.062,9.062,0,0,1,9.42,3.678c1.963,2.824,2.232,7.045-.085,9.76-1.676,1.965-1.312,3.353-.4,5.328,4.135,8.931,8.136,17.925,12.195,26.892.594,1.313,1.235,2.6,1.569,3.306l24-2.312Z" transform="translate(-565.925 -221.179)" fill="#be2623" fill-rule="evenodd"/>
  </g>
</svg>
